<mxfile host="app.diagrams.net" agent="Mozilla/5.0 (Windows NT 10.0; Win64; x64) AppleWebKit/537.36 (KHTML, like Gecko) Chrome/130.0.0.0 Safari/537.36" version="24.8.0">
  <diagram name="Page-1" id="uQy4rHHWJHLYaQFZTCpl">
    <mxGraphModel dx="1434" dy="780" grid="1" gridSize="10" guides="1" tooltips="1" connect="1" arrows="1" fold="1" page="1" pageScale="1" pageWidth="850" pageHeight="1100" math="0" shadow="0">
      <root>
        <mxCell id="0" />
        <mxCell id="1" parent="0" />
        <mxCell id="iuuY5qszwD7AiJu-uLty-1" value="" style="ellipse;whiteSpace=wrap;html=1;aspect=fixed;strokeColor=#4D4D4D;fillColor=#4D4D4D;" vertex="1" parent="1">
          <mxGeometry x="50" y="20" width="80" height="80" as="geometry" />
        </mxCell>
        <mxCell id="iuuY5qszwD7AiJu-uLty-2" value="" style="endArrow=classic;html=1;rounded=0;exitX=0.5;exitY=1;exitDx=0;exitDy=0;" edge="1" parent="1" source="iuuY5qszwD7AiJu-uLty-1">
          <mxGeometry width="50" height="50" relative="1" as="geometry">
            <mxPoint x="400" y="430" as="sourcePoint" />
            <mxPoint x="150" y="140" as="targetPoint" />
            <Array as="points">
              <mxPoint x="90" y="140" />
            </Array>
          </mxGeometry>
        </mxCell>
        <mxCell id="iuuY5qszwD7AiJu-uLty-3" value="" style="rounded=1;whiteSpace=wrap;html=1;fillColor=#f5f5f5;strokeColor=#666666;gradientColor=#b3b3b3;" vertex="1" parent="1">
          <mxGeometry x="150" y="110" width="120" height="60" as="geometry" />
        </mxCell>
        <mxCell id="iuuY5qszwD7AiJu-uLty-4" value="" style="endArrow=classic;html=1;rounded=0;exitX=1;exitY=0.5;exitDx=0;exitDy=0;entryX=0;entryY=0.5;entryDx=0;entryDy=0;" edge="1" parent="1">
          <mxGeometry width="50" height="50" relative="1" as="geometry">
            <mxPoint x="271" y="141" as="sourcePoint" />
            <mxPoint x="330" y="141" as="targetPoint" />
            <Array as="points">
              <mxPoint x="290" y="141" />
            </Array>
          </mxGeometry>
        </mxCell>
        <mxCell id="iuuY5qszwD7AiJu-uLty-5" value="" style="rounded=1;whiteSpace=wrap;html=1;fillColor=#f5f5f5;gradientColor=#b3b3b3;strokeColor=#666666;" vertex="1" parent="1">
          <mxGeometry x="329" y="111" width="120" height="60" as="geometry" />
        </mxCell>
        <mxCell id="iuuY5qszwD7AiJu-uLty-7" value="" style="endArrow=classic;html=1;rounded=0;exitX=0.65;exitY=1.067;exitDx=0;exitDy=0;exitPerimeter=0;" edge="1" parent="1">
          <mxGeometry width="50" height="50" relative="1" as="geometry">
            <mxPoint x="399" y="171.01999999999998" as="sourcePoint" />
            <mxPoint x="350" y="240" as="targetPoint" />
            <Array as="points">
              <mxPoint x="400" y="197" />
              <mxPoint x="400" y="240" />
            </Array>
          </mxGeometry>
        </mxCell>
        <mxCell id="iuuY5qszwD7AiJu-uLty-8" value="" style="rounded=1;whiteSpace=wrap;html=1;fillColor=#f5f5f5;gradientColor=#b3b3b3;strokeColor=#666666;" vertex="1" parent="1">
          <mxGeometry x="230" y="209" width="120" height="60" as="geometry" />
        </mxCell>
        <mxCell id="iuuY5qszwD7AiJu-uLty-9" value="" style="endArrow=classic;html=1;rounded=0;exitX=0;exitY=0.5;exitDx=0;exitDy=0;" edge="1" parent="1" source="iuuY5qszwD7AiJu-uLty-8">
          <mxGeometry width="50" height="50" relative="1" as="geometry">
            <mxPoint x="230" y="232" as="sourcePoint" />
            <mxPoint x="190" y="240" as="targetPoint" />
          </mxGeometry>
        </mxCell>
        <mxCell id="iuuY5qszwD7AiJu-uLty-10" value="" style="rounded=1;whiteSpace=wrap;html=1;fillColor=#f5f5f5;gradientColor=#b3b3b3;strokeColor=#666666;" vertex="1" parent="1">
          <mxGeometry x="71" y="210" width="120" height="60" as="geometry" />
        </mxCell>
        <mxCell id="iuuY5qszwD7AiJu-uLty-11" value="" style="endArrow=classic;html=1;rounded=0;" edge="1" parent="1">
          <mxGeometry width="50" height="50" relative="1" as="geometry">
            <mxPoint x="297.5" y="289" as="sourcePoint" />
            <mxPoint x="297.5" y="329" as="targetPoint" />
            <Array as="points">
              <mxPoint x="297.5" y="279" />
              <mxPoint x="297.5" y="269" />
            </Array>
          </mxGeometry>
        </mxCell>
        <mxCell id="iuuY5qszwD7AiJu-uLty-12" value="" style="rounded=1;whiteSpace=wrap;html=1;fillColor=#f5f5f5;gradientColor=#b3b3b3;strokeColor=#666666;" vertex="1" parent="1">
          <mxGeometry x="240" y="329" width="120" height="60" as="geometry" />
        </mxCell>
        <mxCell id="iuuY5qszwD7AiJu-uLty-13" value="" style="endArrow=classic;html=1;rounded=0;exitX=0.45;exitY=0.967;exitDx=0;exitDy=0;exitPerimeter=0;" edge="1" parent="1">
          <mxGeometry width="50" height="50" relative="1" as="geometry">
            <mxPoint x="299.5" y="389" as="sourcePoint" />
            <mxPoint x="299.5" y="450" as="targetPoint" />
          </mxGeometry>
        </mxCell>
        <mxCell id="iuuY5qszwD7AiJu-uLty-14" value="" style="rounded=1;whiteSpace=wrap;html=1;fillColor=#f5f5f5;gradientColor=#b3b3b3;strokeColor=#666666;" vertex="1" parent="1">
          <mxGeometry x="240" y="450" width="120" height="60" as="geometry" />
        </mxCell>
        <mxCell id="iuuY5qszwD7AiJu-uLty-16" value="" style="verticalLabelPosition=bottom;verticalAlign=top;html=1;shape=mxgraph.basic.diag_round_rect;dx=6;whiteSpace=wrap;fillColor=#f5f5f5;gradientColor=#b3b3b3;strokeColor=#666666;" vertex="1" parent="1">
          <mxGeometry x="70" y="305" width="120" height="120" as="geometry" />
        </mxCell>
        <mxCell id="iuuY5qszwD7AiJu-uLty-18" value="" style="endArrow=none;html=1;rounded=0;" edge="1" parent="1">
          <mxGeometry width="50" height="50" relative="1" as="geometry">
            <mxPoint x="190" y="359" as="sourcePoint" />
            <mxPoint x="240" y="359" as="targetPoint" />
            <Array as="points">
              <mxPoint x="220" y="359" />
            </Array>
          </mxGeometry>
        </mxCell>
        <mxCell id="iuuY5qszwD7AiJu-uLty-20" value="" style="verticalLabelPosition=bottom;verticalAlign=top;html=1;shape=mxgraph.basic.diag_round_rect;dx=6;whiteSpace=wrap;fillColor=#f5f5f5;gradientColor=#b3b3b3;strokeColor=#666666;" vertex="1" parent="1">
          <mxGeometry x="70" y="450" width="120" height="90" as="geometry" />
        </mxCell>
        <mxCell id="iuuY5qszwD7AiJu-uLty-22" value="" style="endArrow=none;html=1;rounded=0;exitX=1;exitY=0.322;exitDx=0;exitDy=0;exitPerimeter=0;" edge="1" parent="1">
          <mxGeometry width="50" height="50" relative="1" as="geometry">
            <mxPoint x="191" y="480.5" as="sourcePoint" />
            <mxPoint x="241" y="480.52" as="targetPoint" />
            <Array as="points" />
          </mxGeometry>
        </mxCell>
        <mxCell id="iuuY5qszwD7AiJu-uLty-24" value="" style="endArrow=classic;html=1;rounded=0;exitX=0.5;exitY=1;exitDx=0;exitDy=0;" edge="1" parent="1" source="iuuY5qszwD7AiJu-uLty-14">
          <mxGeometry width="50" height="50" relative="1" as="geometry">
            <mxPoint x="400" y="720" as="sourcePoint" />
            <mxPoint x="300" y="580" as="targetPoint" />
          </mxGeometry>
        </mxCell>
        <mxCell id="iuuY5qszwD7AiJu-uLty-25" value="" style="rounded=1;whiteSpace=wrap;html=1;fillColor=#f5f5f5;gradientColor=#b3b3b3;strokeColor=#666666;" vertex="1" parent="1">
          <mxGeometry x="240" y="580" width="120" height="60" as="geometry" />
        </mxCell>
        <mxCell id="iuuY5qszwD7AiJu-uLty-26" value="" style="endArrow=classic;html=1;rounded=0;exitX=1;exitY=0.5;exitDx=0;exitDy=0;entryX=0.417;entryY=0.033;entryDx=0;entryDy=0;entryPerimeter=0;" edge="1" parent="1">
          <mxGeometry width="50" height="50" relative="1" as="geometry">
            <mxPoint x="362" y="721" as="sourcePoint" />
            <mxPoint x="482.03999999999996" y="784.98" as="targetPoint" />
            <Array as="points">
              <mxPoint x="482" y="721" />
            </Array>
          </mxGeometry>
        </mxCell>
        <mxCell id="iuuY5qszwD7AiJu-uLty-27" value="" style="endArrow=classic;startArrow=classic;html=1;rounded=0;" edge="1" parent="1">
          <mxGeometry width="50" height="50" relative="1" as="geometry">
            <mxPoint x="120" y="777" as="sourcePoint" />
            <mxPoint x="240" y="719" as="targetPoint" />
            <Array as="points">
              <mxPoint x="120" y="719" />
            </Array>
          </mxGeometry>
        </mxCell>
        <mxCell id="iuuY5qszwD7AiJu-uLty-29" value="" style="rhombus;whiteSpace=wrap;html=1;fillColor=#4D4D4D;" vertex="1" parent="1">
          <mxGeometry x="60" y="777" width="120" height="90" as="geometry" />
        </mxCell>
        <mxCell id="iuuY5qszwD7AiJu-uLty-30" value="" style="endArrow=classic;startArrow=classic;html=1;rounded=0;entryX=0;entryY=0.5;entryDx=0;entryDy=0;" edge="1" parent="1" target="iuuY5qszwD7AiJu-uLty-31">
          <mxGeometry width="50" height="50" relative="1" as="geometry">
            <mxPoint x="121" y="866" as="sourcePoint" />
            <mxPoint x="241" y="921" as="targetPoint" />
            <Array as="points">
              <mxPoint x="121" y="919" />
            </Array>
          </mxGeometry>
        </mxCell>
        <mxCell id="iuuY5qszwD7AiJu-uLty-31" value="" style="rounded=1;whiteSpace=wrap;html=1;fillColor=#f5f5f5;gradientColor=#b3b3b3;strokeColor=#666666;" vertex="1" parent="1">
          <mxGeometry x="240" y="891" width="120" height="60" as="geometry" />
        </mxCell>
        <mxCell id="iuuY5qszwD7AiJu-uLty-32" value="" style="rounded=1;whiteSpace=wrap;html=1;fillColor=#f5f5f5;gradientColor=#b3b3b3;strokeColor=#666666;" vertex="1" parent="1">
          <mxGeometry x="426" y="785" width="120" height="60" as="geometry" />
        </mxCell>
        <mxCell id="iuuY5qszwD7AiJu-uLty-33" value="" style="endArrow=classic;html=1;rounded=0;exitX=0.658;exitY=0.967;exitDx=0;exitDy=0;exitPerimeter=0;" edge="1" parent="1">
          <mxGeometry width="50" height="50" relative="1" as="geometry">
            <mxPoint x="478.96000000000004" y="846" as="sourcePoint" />
            <mxPoint x="360" y="922" as="targetPoint" />
            <Array as="points">
              <mxPoint x="480" y="922" />
            </Array>
          </mxGeometry>
        </mxCell>
        <mxCell id="iuuY5qszwD7AiJu-uLty-34" value="" style="endArrow=classic;html=1;rounded=0;exitX=0.417;exitY=0.983;exitDx=0;exitDy=0;exitPerimeter=0;" edge="1" parent="1">
          <mxGeometry width="50" height="50" relative="1" as="geometry">
            <mxPoint x="298.03999999999996" y="950.98" as="sourcePoint" />
            <mxPoint x="298" y="991" as="targetPoint" />
          </mxGeometry>
        </mxCell>
        <mxCell id="iuuY5qszwD7AiJu-uLty-35" value="" style="rhombus;whiteSpace=wrap;html=1;fillColor=#333333;" vertex="1" parent="1">
          <mxGeometry x="248" y="991" width="100" height="80" as="geometry" />
        </mxCell>
        <mxCell id="iuuY5qszwD7AiJu-uLty-36" value="" style="endArrow=classic;html=1;rounded=0;exitX=0.82;exitY=0.613;exitDx=0;exitDy=0;exitPerimeter=0;" edge="1" parent="1">
          <mxGeometry width="50" height="50" relative="1" as="geometry">
            <mxPoint x="319" y="1054.04" as="sourcePoint" />
            <mxPoint x="449" y="1150" as="targetPoint" />
            <Array as="points">
              <mxPoint x="319" y="1107" />
              <mxPoint x="449" y="1107" />
            </Array>
          </mxGeometry>
        </mxCell>
        <mxCell id="iuuY5qszwD7AiJu-uLty-38" value="" style="rounded=1;whiteSpace=wrap;html=1;fillColor=#f5f5f5;gradientColor=#b3b3b3;strokeColor=#666666;" vertex="1" parent="1">
          <mxGeometry x="393" y="1150" width="120" height="60" as="geometry" />
        </mxCell>
        <mxCell id="iuuY5qszwD7AiJu-uLty-39" value="" style="rounded=1;whiteSpace=wrap;html=1;fillColor=#f5f5f5;gradientColor=#b3b3b3;strokeColor=#666666;" vertex="1" parent="1">
          <mxGeometry x="104" y="1147" width="120" height="60" as="geometry" />
        </mxCell>
        <mxCell id="iuuY5qszwD7AiJu-uLty-40" value="" style="endArrow=classic;html=1;rounded=0;exitX=0.215;exitY=0.613;exitDx=0;exitDy=0;exitPerimeter=0;" edge="1" parent="1">
          <mxGeometry width="50" height="50" relative="1" as="geometry">
            <mxPoint x="278.5" y="1055.04" as="sourcePoint" />
            <mxPoint x="163.5" y="1147" as="targetPoint" />
            <Array as="points">
              <mxPoint x="278.5" y="1107" />
              <mxPoint x="163.5" y="1107" />
              <mxPoint x="163.5" y="1137" />
            </Array>
          </mxGeometry>
        </mxCell>
        <mxCell id="iuuY5qszwD7AiJu-uLty-41" value="" style="endArrow=classic;html=1;rounded=0;entryX=0.872;entryY=0.543;entryDx=0;entryDy=0;entryPerimeter=0;" edge="1" parent="1">
          <mxGeometry width="50" height="50" relative="1" as="geometry">
            <mxPoint x="440" y="1210" as="sourcePoint" />
            <mxPoint x="341.9680000000001" y="1280.042" as="targetPoint" />
            <Array as="points">
              <mxPoint x="440" y="1240" />
              <mxPoint x="440" y="1280" />
            </Array>
          </mxGeometry>
        </mxCell>
        <mxCell id="iuuY5qszwD7AiJu-uLty-42" value="" style="endArrow=classic;html=1;rounded=0;entryX=0.128;entryY=0.543;entryDx=0;entryDy=0;entryPerimeter=0;" edge="1" parent="1">
          <mxGeometry width="50" height="50" relative="1" as="geometry">
            <mxPoint x="149" y="1207" as="sourcePoint" />
            <mxPoint x="249.03199999999993" y="1280.042" as="targetPoint" />
            <Array as="points">
              <mxPoint x="149" y="1280" />
            </Array>
          </mxGeometry>
        </mxCell>
        <mxCell id="iuuY5qszwD7AiJu-uLty-43" value="" style="ellipse;whiteSpace=wrap;html=1;aspect=fixed;fillColor=#333333;" vertex="1" parent="1">
          <mxGeometry x="248" y="1229" width="94" height="94" as="geometry" />
        </mxCell>
        <mxCell id="iuuY5qszwD7AiJu-uLty-47" value="&lt;font color=&quot;#ffffff&quot;&gt;&lt;b&gt;GAME START&lt;/b&gt;&lt;/font&gt;" style="text;html=1;align=center;verticalAlign=middle;whiteSpace=wrap;rounded=0;" vertex="1" parent="1">
          <mxGeometry x="60" y="45" width="60" height="30" as="geometry" />
        </mxCell>
        <mxCell id="iuuY5qszwD7AiJu-uLty-48" value="&lt;b&gt;Publisher Splash Screen&lt;/b&gt;" style="text;html=1;align=center;verticalAlign=middle;whiteSpace=wrap;rounded=0;" vertex="1" parent="1">
          <mxGeometry x="166" y="125" width="90" height="30" as="geometry" />
        </mxCell>
        <mxCell id="iuuY5qszwD7AiJu-uLty-49" value="&lt;b&gt;Developer Splash Screen&lt;/b&gt;" style="text;html=1;align=center;verticalAlign=middle;whiteSpace=wrap;rounded=0;" vertex="1" parent="1">
          <mxGeometry x="346" y="125" width="90" height="30" as="geometry" />
        </mxCell>
        <mxCell id="iuuY5qszwD7AiJu-uLty-50" value="&lt;b&gt;Game Menu&lt;/b&gt;" style="text;html=1;align=center;verticalAlign=middle;whiteSpace=wrap;rounded=0;" vertex="1" parent="1">
          <mxGeometry x="257" y="224" width="70" height="30" as="geometry" />
        </mxCell>
        <mxCell id="iuuY5qszwD7AiJu-uLty-51" value="&lt;b&gt;Credit&amp;nbsp;&lt;/b&gt;&lt;div&gt;&lt;b&gt;( Developer Info )&lt;/b&gt;&lt;/div&gt;" style="text;html=1;align=center;verticalAlign=middle;whiteSpace=wrap;rounded=0;" vertex="1" parent="1">
          <mxGeometry x="71" y="224" width="120" height="30" as="geometry" />
        </mxCell>
        <mxCell id="iuuY5qszwD7AiJu-uLty-52" value="&lt;b&gt;Cinematic Cutscene&lt;/b&gt;" style="text;html=1;align=center;verticalAlign=middle;whiteSpace=wrap;rounded=0;" vertex="1" parent="1">
          <mxGeometry x="270" y="344" width="60" height="30" as="geometry" />
        </mxCell>
        <mxCell id="iuuY5qszwD7AiJu-uLty-53" value="&lt;b&gt;Character Configuration&lt;/b&gt;" style="text;html=1;align=center;verticalAlign=middle;whiteSpace=wrap;rounded=0;" vertex="1" parent="1">
          <mxGeometry x="269" y="465" width="60" height="30" as="geometry" />
        </mxCell>
        <mxCell id="iuuY5qszwD7AiJu-uLty-54" value="&lt;b&gt;Level Configuration&lt;/b&gt;" style="text;html=1;align=center;verticalAlign=middle;whiteSpace=wrap;rounded=0;" vertex="1" parent="1">
          <mxGeometry x="269" y="595" width="60" height="30" as="geometry" />
        </mxCell>
        <mxCell id="iuuY5qszwD7AiJu-uLty-55" value="" style="rounded=1;whiteSpace=wrap;html=1;fillColor=#f5f5f5;gradientColor=#b3b3b3;strokeColor=#666666;" vertex="1" parent="1">
          <mxGeometry x="241" y="685" width="120" height="60" as="geometry" />
        </mxCell>
        <mxCell id="iuuY5qszwD7AiJu-uLty-57" value="" style="endArrow=classic;html=1;rounded=0;exitX=0.5;exitY=1;exitDx=0;exitDy=0;" edge="1" parent="1" source="iuuY5qszwD7AiJu-uLty-25" target="iuuY5qszwD7AiJu-uLty-55">
          <mxGeometry width="50" height="50" relative="1" as="geometry">
            <mxPoint x="410" y="580" as="sourcePoint" />
            <mxPoint x="299" y="685" as="targetPoint" />
          </mxGeometry>
        </mxCell>
      </root>
    </mxGraphModel>
  </diagram>
</mxfile>
